<svg width="30" height="34" viewBox="0 0 30 34" fill="none" xmlns="http://www.w3.org/2000/svg">
<path d="M19.9116 15.8838C19.9116 16.9037 19.1593 17.7397 18.2062 17.7397C17.2699 17.7397 16.5008 16.9037 16.5008 15.8838C16.5008 14.8639 17.2532 14.0279 18.2062 14.0279C19.1593 14.0279 19.9116 14.8639 19.9116 15.8838ZM12.1035 14.0279C11.1505 14.0279 10.3981 14.8639 10.3981 15.8838C10.3981 16.9037 11.1672 17.7397 12.1035 17.7397C13.0565 17.7397 13.8089 16.9037 13.8089 15.8838C13.8257 14.8639 13.0565 14.0279 12.1035 14.0279ZM29.7596 3.44427V33.4395C25.5474 29.7172 26.8945 30.9493 22.0016 26.4005L22.8878 29.4937H3.92755C2.03822 29.4937 0.5 27.9554 0.5 26.0494V3.44427C0.5 1.53822 2.03822 0 3.92755 0H26.332C28.2214 0 29.7596 1.53822 29.7596 3.44427ZM24.9945 19.2946C24.9945 13.9108 22.5868 9.54699 22.5868 9.54699C20.1792 7.74125 17.8886 7.79141 17.8886 7.79141L17.6545 8.05893C20.4968 8.92835 21.8177 10.1823 21.8177 10.1823C17.846 8.00557 13.1806 8.00517 9.32803 9.69746C8.7094 9.9817 8.34157 10.1823 8.34157 10.1823C8.34157 10.1823 9.72931 8.86147 12.7389 7.99205L12.5717 7.79141C12.5717 7.79141 10.2811 7.74125 7.87342 9.54699C7.87342 9.54699 5.46577 13.9108 5.46577 19.2946C5.46577 19.2946 6.87023 21.719 10.5653 21.836C10.5653 21.836 11.1839 21.0836 11.6855 20.4483C9.56211 19.8129 8.75956 18.4753 8.75956 18.4753C9.00553 18.6475 9.41111 18.8707 9.44507 18.8933C12.2672 20.4737 16.2759 20.9915 19.8782 19.4785C20.4634 19.2612 21.1155 18.9435 21.801 18.4921C21.801 18.4921 20.965 19.8631 18.7747 20.4817C19.2763 21.1171 19.8782 21.836 19.8782 21.836C23.5733 21.719 24.9945 19.2946 24.9945 19.2946Z" fill="#A1AEB7"/>
</svg>
