<svg width="40" height="39" viewBox="0 0 40 39" fill="none" xmlns="http://www.w3.org/2000/svg">
<path d="M25.2853 19.5091H22.0965C22.0965 24.6038 22.0965 30.875 22.0965 30.875H17.3712C17.3712 30.875 17.3712 24.6646 17.3712 19.5091H15.125V15.492H17.3712V12.8937C17.3712 11.0328 18.2554 8.125 22.1399 8.125L25.6414 8.13842V12.0379C25.6414 12.0379 23.5136 12.0379 23.0999 12.0379C22.6862 12.0379 22.098 12.2447 22.098 13.1321V15.4928H25.6982L25.2853 19.5091Z" fill="#A1AEB7"/>
<mask id="mask0_214_2096" style="mask-type:luminance" maskUnits="userSpaceOnUse" x="15" y="8" width="11" height="23">
<path d="M25.2853 19.5091H22.0965C22.0965 24.6038 22.0965 30.875 22.0965 30.875H17.3712C17.3712 30.875 17.3712 24.6646 17.3712 19.5091H15.125V15.492H17.3712V12.8937C17.3712 11.0328 18.2554 8.125 22.1399 8.125L25.6414 8.13842V12.0379C25.6414 12.0379 23.5136 12.0379 23.0999 12.0379C22.6862 12.0379 22.098 12.2447 22.098 13.1321V15.4928H25.6982L25.2853 19.5091Z" fill="white"/>
</mask>
<g mask="url(#mask0_214_2096)">
<rect x="0.5" width="39" height="39" fill="#A1AEB7"/>
</g>
</svg>
