<svg width="40" height="39" viewBox="0 0 40 39" fill="none" xmlns="http://www.w3.org/2000/svg">
<path fill-rule="evenodd" clip-rule="evenodd" d="M31.3742 26.4779V17.1649V12.5213C31.3742 10.0964 29.402 8.125 26.9771 8.125H13.0213C10.5964 8.125 8.625 10.0964 8.625 12.5213V17.1649V26.4779C8.625 28.9036 10.5964 30.875 13.0213 30.875H26.9779C29.402 30.875 31.3742 28.9036 31.3742 26.4779ZM24.0044 19.4988C24.0044 21.707 22.2054 23.5027 19.9988 23.5027C17.7914 23.5027 15.994 21.7062 15.9965 19.498C15.9973 18.6263 16.28 17.8215 16.7537 17.1641C17.4828 16.1555 18.6647 15.4948 20.0012 15.4948C21.3369 15.4948 22.5196 16.1563 23.2471 17.1649C23.7192 17.8223 24.0044 18.6271 24.0044 19.4988ZM28.7422 14.6006V11.2444V10.7449L28.2403 10.7465L24.8857 10.757L24.8986 14.6135L28.7422 14.6006ZM19.9996 25.7206C23.4307 25.7206 26.2214 22.9283 26.2214 19.4988C26.2214 18.6738 26.0547 17.8851 25.759 17.1649H29.1563V26.4779C29.1563 27.6815 28.1775 28.6563 26.9763 28.6563H13.0205C11.8177 28.6563 10.8405 27.6815 10.8405 26.4779V17.1649H14.2362C13.9429 17.8851 13.7786 18.6738 13.7786 19.4988C13.7786 22.9283 16.5684 25.7206 19.9996 25.7206Z" fill="black"/>
<mask id="mask0_214_2095" style="mask-type:luminance" maskUnits="userSpaceOnUse" x="8" y="8" width="24" height="23">
<path fill-rule="evenodd" clip-rule="evenodd" d="M31.3742 26.4779V17.1649V12.5213C31.3742 10.0964 29.402 8.125 26.9771 8.125H13.0213C10.5964 8.125 8.625 10.0964 8.625 12.5213V17.1649V26.4779C8.625 28.9036 10.5964 30.875 13.0213 30.875H26.9779C29.402 30.875 31.3742 28.9036 31.3742 26.4779ZM24.0044 19.4988C24.0044 21.707 22.2054 23.5027 19.9988 23.5027C17.7914 23.5027 15.994 21.7062 15.9965 19.498C15.9973 18.6263 16.28 17.8215 16.7537 17.1641C17.4828 16.1555 18.6647 15.4948 20.0012 15.4948C21.3369 15.4948 22.5196 16.1563 23.2471 17.1649C23.7192 17.8223 24.0044 18.6271 24.0044 19.4988ZM28.7422 14.6006V11.2444V10.7449L28.2403 10.7465L24.8857 10.757L24.8986 14.6135L28.7422 14.6006ZM19.9996 25.7206C23.4307 25.7206 26.2214 22.9283 26.2214 19.4988C26.2214 18.6738 26.0547 17.8851 25.759 17.1649H29.1563V26.4779C29.1563 27.6815 28.1775 28.6563 26.9763 28.6563H13.0205C11.8177 28.6563 10.8405 27.6815 10.8405 26.4779V17.1649H14.2362C13.9429 17.8851 13.7786 18.6738 13.7786 19.4988C13.7786 22.9283 16.5684 25.7206 19.9996 25.7206Z" fill="white"/>
</mask>
<g mask="url(#mask0_214_2095)">
<rect x="0.5" width="39" height="39" fill="#A1AEB7"/>
</g>
</svg>
