<svg width="168" height="40" viewBox="0 0 168 40" fill="none" xmlns="http://www.w3.org/2000/svg">
<path d="M10.3443 2.06711C11.9495 1.52472 14.3612 0.898024 17.3375 0.832809C18.8803 0.799407 21.1687 0.770776 23.8299 1.63447C25.6176 2.21504 30.1133 3.67361 32.5515 8.27043C33.3549 9.78468 34.8243 13.3158 33.6513 17.4911C33.4563 18.1862 32.0164 22.9993 27.0871 25.1371C22.4447 27.1492 18.2891 25.2389 17.6417 24.9287C18.0566 25.6286 20.278 29.2217 24.8345 30.3352C25.4429 30.4847 30.1009 31.5408 34.1224 28.4964C36.6635 26.5734 37.6135 24.0316 37.9613 23.0598C39.9378 17.5452 37.4325 12.3646 36.6401 10.7263C33.8275 4.9111 28.881 2.38841 27.4958 1.73945C19.3295 -2.08116 11.5439 1.48973 10.3428 2.06552L10.3443 2.06711Z" fill="url(#paint0_linear_214_2082)"/>
<path d="M36.2996 29.7575C35.5212 30.7691 30.726 36.8054 23.101 36.9327C16.3652 37.0456 10.3158 32.4981 9.3861 29.1117C8.8994 27.3382 9.4797 26.0244 9.4797 26.0244C10.0319 24.7296 11.1441 24.1141 11.414 23.9741C13.1143 23.0929 14.2203 24.0282 16.3231 23.7864C18.5803 23.5287 20.1403 22.1274 21.0918 21.2749C21.7922 20.6466 24.4426 18.267 24.7748 14.2651C25.1804 9.37403 21.7844 6.1658 21.4584 5.86836C18.1514 2.84941 14.0675 3.27887 12.6089 3.43315C11.9459 3.50314 8.76369 3.89284 5.75146 6.35667C3.72667 8.01407 2.72052 9.83848 2.12619 10.9439C0.432101 14.0917 0.0577174 17.1218 0 19.0417C0.386863 17.9505 3.86083 8.53737 10.698 7.26649C11.7354 7.07403 13.9473 6.66206 15.9877 7.98385C16.1156 8.06656 18.7582 9.84166 18.8268 13.0308C18.8736 15.1861 17.7286 17.3811 15.9721 18.4277C12.6448 20.4064 9.31747 16.9484 6.09465 19.0194C4.37093 20.1265 3.79531 22.0892 3.47397 23.182C2.06223 27.9935 5.05418 32.4361 5.60327 33.252C9.14587 38.5121 15.8505 40.3636 21.084 39.9421C30.7338 39.1659 35.7926 30.6466 36.2996 29.7591V29.7575Z" fill="url(#paint1_linear_214_2082)"/>
<path d="M90.1221 32.3186C90.2923 32.3186 90.4626 32.1501 90.6345 31.8114C90.8048 31.4743 90.8899 30.9194 90.8899 30.1467V9.50991C90.8899 8.73717 90.8112 8.18225 90.6522 7.84517C90.4931 7.50809 90.3293 7.33796 90.159 7.33796C91.7686 7.33796 93.0794 7.26005 94.0914 7.10264C95.1034 6.94522 95.7668 6.78304 96.0849 6.6145V30.1451C96.0849 30.9178 96.1636 31.4727 96.3227 31.8098C96.4817 32.1485 96.6455 32.317 96.8158 32.317H90.1221V32.3186Z" fill="#F6F7F6"/>
<path d="M108.228 32.6796C105.789 32.6796 103.881 32.2932 102.504 31.5204C101.126 30.7477 100.164 29.6983 99.6145 28.3706C99.0651 27.043 98.792 25.5468 98.792 23.882C98.792 22.2173 99.0779 20.6845 99.6514 19.3569C100.225 18.0292 101.194 16.9734 102.559 16.1895C103.924 15.4057 105.815 15.0129 108.228 15.0129C110.641 15.0129 112.531 15.4057 113.897 16.1895C115.262 16.9734 116.231 18.0308 116.804 19.3569C117.376 20.6845 117.664 22.1934 117.664 23.882C117.664 25.5706 117.389 27.0446 116.841 28.3706C116.292 29.6983 115.334 30.7477 113.971 31.5204C112.605 32.2932 110.69 32.6796 108.228 32.6796ZM108.228 29.0225C109.253 29.0225 110.075 28.8715 110.697 28.5694C111.318 28.2673 111.77 27.7426 112.049 26.9937C112.329 26.2464 112.47 25.2081 112.47 23.8804C112.47 22.5528 112.329 21.5097 112.049 20.7481C111.768 19.9881 111.318 19.4443 110.697 19.1184C110.075 18.7924 109.253 18.6302 108.228 18.6302C107.203 18.6302 106.38 18.7988 105.759 19.1374C105.137 19.4761 104.686 20.031 104.406 20.8022C104.125 21.5749 103.985 22.6132 103.985 23.9154C103.985 25.2176 104.125 26.2082 104.406 26.9571C104.686 27.706 105.137 28.2371 105.759 28.5503C106.38 28.8635 107.203 29.0209 108.228 29.0209V29.0225Z" fill="#F6F7F6"/>
<path d="M79.5898 32.6176C77.6638 32.6176 76.0606 32.4188 74.7804 32.0197C73.5001 31.6206 72.4817 31.0419 71.7267 30.2818C70.9701 29.5218 70.4335 28.598 70.1171 27.512C69.8006 26.4261 69.6416 25.1954 69.6416 23.8184C69.6416 21.0916 70.4094 18.9307 71.9451 17.3375C73.4808 15.7444 75.8342 14.9478 79.0051 14.9478C80.8573 14.9478 82.364 15.2006 83.5222 15.7078C84.6804 16.215 85.5639 16.8907 86.1743 17.735C86.7831 18.5809 87.204 19.5159 87.4369 20.5414C87.6683 21.567 87.7839 22.5989 87.7839 23.6372V25.3385C87.7839 25.2653 87.4482 25.1874 86.7783 25.1032C86.1069 25.0189 84.9792 24.976 83.3953 24.976H74.9089C74.9089 26.3036 75.3169 27.299 76.1345 27.9636C76.9506 28.6282 78.2855 28.9589 80.1392 28.9589C81.699 28.9589 83.0949 28.7729 84.327 28.3977C85.5575 28.024 86.4539 27.6679 87.0161 27.3292V28.4152L87.3823 31.1659C86.9181 31.4791 86.0298 31.7987 84.7125 32.1247C83.3953 32.4506 81.6894 32.6128 79.5914 32.6128L79.5898 32.6176ZM76.2614 21.8643H82.5889C82.5889 21.3332 82.4733 20.8149 82.242 20.3077C82.0106 19.8005 81.638 19.3839 81.1255 19.0579C80.6131 18.732 79.9063 18.5698 79.0035 18.5698C78.1007 18.5698 77.3763 18.7034 76.8269 18.9673C76.2775 19.2328 75.8759 19.5588 75.6205 19.9452C75.3651 20.3315 75.2366 20.729 75.2366 21.1393C75.2366 21.3809 75.3105 21.5622 75.4567 21.683C75.6028 21.8039 75.8711 21.8643 76.2614 21.8643Z" fill="#F6F7F6"/>
<path d="M124.986 32.6542C124.049 32.5365 121.885 32.2646 120.46 30.4631C119.358 29.0703 119.299 27.5232 119.296 27.1527C119.289 26.6964 119.294 25.3958 120.134 24.2207C120.322 23.9568 120.544 23.7151 120.796 23.4973C122.562 21.7037 128.086 21.0455 130.672 20.384C130.687 19.9675 130.638 19.3378 130.23 18.8322C129.684 18.1564 128.74 18.0054 127.058 18.0483C125.676 18.0833 123.705 18.2502 121.32 18.8576C121.315 18.6795 121.304 18.4983 121.286 18.3107C121.191 17.3058 120.928 16.4344 120.629 15.7221C121.363 15.5488 122.346 15.3469 123.519 15.1974C124.356 15.0909 125.774 14.9494 127.628 14.9828C130.502 15.0352 131.946 15.1116 133.315 16.0544C133.467 16.1594 134.111 16.6459 134.69 17.5125C135.583 18.8481 135.678 21.4827 135.583 26.4102C135.564 27.3944 135.547 28.9176 135.583 30.8082C135.573 30.9751 135.578 31.3408 135.785 31.732C135.944 32.0309 136.153 32.2169 136.282 32.3139H131.493C131.535 32.1994 131.572 32.0531 131.585 31.8814C131.617 31.4378 131.454 31.0928 131.361 30.9274C130.638 31.4442 128.185 33.0564 124.99 32.6542H124.986ZM126.446 29.4487C126.802 29.5028 127.991 29.6395 129.185 28.9367C130.034 28.4374 130.479 27.7537 130.669 27.4151V23.9759C129.384 24.3479 128.34 24.6119 127.652 24.7788C125.601 25.2749 124.685 25.3973 124.285 26.1653C124.017 26.6821 124.125 27.2115 124.163 27.4008C124.362 28.3802 125.251 29.1752 126.446 29.4487Z" fill="#F6F7F6"/>
<path d="M61.4937 32.3186H70.7111C70.4669 32.2947 70.1135 32.0896 69.6509 31.7032C69.1882 31.3169 68.6758 30.6777 68.1152 29.7841C67.2622 28.4087 66.2984 27.159 65.2253 26.0364C64.1523 24.9139 63.1274 24.1602 62.1523 23.7738V23.6657C63.0294 23.424 63.823 23.0377 64.5298 22.5066C65.2366 21.9755 65.7924 21.2887 66.194 20.4428C66.5956 19.5985 66.798 18.6333 66.798 17.5458C66.798 16.0257 66.5104 14.7521 65.9386 13.7266C65.3651 12.701 64.4398 11.9219 63.1595 11.3908C61.8793 10.8598 60.1653 10.5942 58.0208 10.5942H46.0244C46.1947 10.6181 46.365 10.793 46.5368 11.1189C46.7071 11.4449 46.7923 11.9934 46.7923 12.7662V30.1434C46.7923 30.9162 46.7135 31.4711 46.5545 31.8082C46.3955 32.1469 46.2316 32.3154 46.0614 32.3154H53.1567C52.9864 32.3154 52.8145 32.1469 52.6443 31.8082C52.474 31.4711 52.3888 30.9162 52.3888 30.1434V15.6282C52.3888 15.1464 52.4499 14.8682 52.572 14.795C52.6941 14.7219 53.1326 14.6869 53.8892 14.6869H57.2545C58.2794 14.6869 59.0778 14.8078 59.6496 15.0495C60.2215 15.2911 60.6311 15.6282 60.8753 16.0639C61.1195 16.498 61.2415 16.994 61.2415 17.5489C61.2415 18.8035 60.8994 19.7034 60.2167 20.2456C59.534 20.7894 58.424 21.0597 56.8883 21.0597H54.3711V24.7183C55.5807 24.7279 56.6586 24.9505 57.6015 25.3861C58.5637 25.8329 59.4119 26.4785 60.1428 27.3228C60.8737 28.1686 61.4953 29.1688 62.0078 30.3279C62.3242 31.0275 62.3917 31.5283 62.2086 31.8304C62.0254 32.1325 61.7877 32.2947 61.4953 32.3186H61.4937Z" fill="#F6F7F6"/>
<path d="M151.418 32.2978H157.344C157.174 32.2978 157.009 32.1293 156.851 31.7906C156.692 31.4535 156.613 30.8986 156.613 30.1259V7.31714H150.688C150.858 7.34099 151.022 7.51589 151.181 7.84184C151.34 8.1678 151.418 8.71635 151.418 9.48909V14.4483V23.928C151.415 24.6737 151.348 25.359 151.219 25.9791C151.084 26.6183 150.853 27.1621 150.524 27.6089C150.194 28.0557 149.756 28.3991 149.206 28.6408C148.657 28.8825 147.981 29.0033 147.176 29.0033C146.371 29.0033 145.676 28.8459 145.091 28.5327C144.506 28.2194 144.055 27.6884 143.738 26.9395C143.422 26.1922 143.263 25.1777 143.263 23.8978C143.263 21.9675 143.623 20.6033 144.342 19.8067C145.062 19.0101 146.007 18.6126 147.178 18.6126C147.982 18.6126 148.659 18.7398 149.208 18.9926C149.287 19.0292 149.364 19.0689 149.438 19.1103V15.3992C149.158 15.3133 148.863 15.237 148.549 15.1734C147.952 15.0525 147.287 14.9921 146.556 14.9921C144.386 14.9921 142.685 15.3849 141.454 16.1687C140.222 16.9526 139.356 18.01 138.857 19.336C138.357 20.6637 138.106 22.1726 138.106 23.8612C138.106 25.5498 138.355 27.0237 138.857 28.3498C139.356 29.6775 140.222 30.7269 141.454 31.4996C142.685 32.2724 144.386 32.6587 146.556 32.6587C147.263 32.6587 147.915 32.592 148.512 32.46C149.11 32.3264 149.651 32.1468 150.14 31.9162C150.628 31.6872 151.054 31.4154 151.42 31.1021L151.529 31.1387L151.42 31.8272V32.2978H151.418Z" fill="#F6F7F6"/>
<defs>
<linearGradient id="paint0_linear_214_2082" x1="16.6387" y1="26.0533" x2="30.1027" y2="3.18166" gradientUnits="userSpaceOnUse">
<stop stop-color="#10C680"/>
<stop offset="1" stop-color="#08FAA6"/>
</linearGradient>
<linearGradient id="paint1_linear_214_2082" x1="9.66533" y1="37.2047" x2="26.5034" y2="8.60176" gradientUnits="userSpaceOnUse">
<stop stop-color="#10C680"/>
<stop offset="1" stop-color="#08FAA6"/>
</linearGradient>
</defs>
</svg>
