<svg width="40" height="39" viewBox="0 0 40 39" fill="none" xmlns="http://www.w3.org/2000/svg">
<path fill-rule="evenodd" clip-rule="evenodd" d="M30.5748 10.5509L30.5144 10.5106C29.2648 9.32155 27.7936 8.75724 26.1007 8.83785L26.0402 8.71693L26.0805 8.69678C27.6122 8.35416 28.5191 7.99139 28.8013 7.58831C28.8819 7.26585 28.7811 7.08446 28.4385 7.04416C27.6727 7.14492 26.9471 7.30616 26.3224 7.56816C27.1285 7.04416 27.4308 6.68139 27.2495 6.5C26.4634 6.52015 25.5968 6.92323 24.7101 7.72939C25.0325 7.16508 25.1736 6.84262 25.093 6.80231C24.6496 7.08446 24.2868 7.40693 23.9644 7.74954C23.2791 8.51539 22.735 9.22078 22.3117 9.8657L22.2916 9.90601C21.2234 11.6594 20.4576 13.4128 20.0142 15.2065L19.853 15.3476L19.8127 15.3677C19.1677 14.5616 18.3817 13.8763 17.4547 13.3322C16.3663 12.6066 15.0765 11.9416 13.5851 11.2765C11.9728 10.43 10.3202 9.74478 8.66755 9.20062C8.6474 11.0749 9.57448 12.5462 11.3682 13.6345V13.6546C10.7434 13.6546 10.1186 13.7554 9.51402 13.9368C9.63494 15.67 10.8643 16.8591 13.182 17.504L13.1619 17.5443C12.2549 17.4839 11.5093 17.8063 10.9248 18.4714C11.6906 19.9628 13.0409 20.6682 14.9959 20.6279C14.613 20.8294 14.3106 21.031 14.1091 21.2728C13.7463 21.6557 13.6254 22.0991 13.7463 22.603C14.1696 23.3688 14.9153 23.7114 16.0237 23.651L16.0842 23.7316L16.064 23.7719C14.1494 25.747 11.8317 26.6338 9.13109 26.4524L9.09078 26.4725C7.43816 26.4524 5.66462 25.6664 3.75 24.0944C5.66462 26.8554 8.22417 28.8507 11.3883 30.1204C14.9959 31.3095 18.6236 31.4102 22.2311 30.3824H22.2916C25.7984 29.3747 28.761 27.2787 31.2198 24.1347C32.3484 22.5022 33.0538 20.9302 33.3359 19.4187C35.1699 19.4791 36.4799 18.9551 37.3062 17.8265L37.2861 17.7862C36.6613 18.0079 35.4722 17.9474 33.7189 17.5846V17.3831C35.6536 17.1614 36.8024 16.5366 37.1652 15.5088C35.8149 16.0328 34.4847 16.053 33.1747 15.5491C32.9329 13.7353 32.0662 12.0625 30.5748 10.5509Z" fill="#A1AEB7"/>
<mask id="mask0_214_2097" style="mask-type:luminance" maskUnits="userSpaceOnUse" x="3" y="6" width="35" height="26">
<path fill-rule="evenodd" clip-rule="evenodd" d="M30.5748 10.5509L30.5144 10.5106C29.2648 9.32155 27.7936 8.75724 26.1007 8.83785L26.0402 8.71693L26.0805 8.69678C27.6122 8.35416 28.5191 7.99139 28.8013 7.58831C28.8819 7.26585 28.7811 7.08446 28.4385 7.04416C27.6727 7.14492 26.9471 7.30616 26.3224 7.56816C27.1285 7.04416 27.4308 6.68139 27.2495 6.5C26.4634 6.52015 25.5968 6.92323 24.7101 7.72939C25.0325 7.16508 25.1736 6.84262 25.093 6.80231C24.6496 7.08446 24.2868 7.40693 23.9644 7.74954C23.2791 8.51539 22.735 9.22078 22.3117 9.8657L22.2916 9.90601C21.2234 11.6594 20.4576 13.4128 20.0142 15.2065L19.853 15.3476L19.8127 15.3677C19.1677 14.5616 18.3817 13.8763 17.4547 13.3322C16.3663 12.6066 15.0765 11.9416 13.5851 11.2765C11.9728 10.43 10.3202 9.74478 8.66755 9.20062C8.6474 11.0749 9.57448 12.5462 11.3682 13.6345V13.6546C10.7434 13.6546 10.1186 13.7554 9.51402 13.9368C9.63494 15.67 10.8643 16.8591 13.182 17.504L13.1619 17.5443C12.2549 17.4839 11.5093 17.8063 10.9248 18.4714C11.6906 19.9628 13.0409 20.6682 14.9959 20.6279C14.613 20.8294 14.3106 21.031 14.1091 21.2728C13.7463 21.6557 13.6254 22.0991 13.7463 22.603C14.1696 23.3688 14.9153 23.7114 16.0237 23.651L16.0842 23.7316L16.064 23.7719C14.1494 25.747 11.8317 26.6338 9.13109 26.4524L9.09078 26.4725C7.43816 26.4524 5.66462 25.6664 3.75 24.0944C5.66462 26.8554 8.22417 28.8507 11.3883 30.1204C14.9959 31.3095 18.6236 31.4102 22.2311 30.3824H22.2916C25.7984 29.3747 28.761 27.2787 31.2198 24.1347C32.3484 22.5022 33.0538 20.9302 33.3359 19.4187C35.1699 19.4791 36.4799 18.9551 37.3062 17.8265L37.2861 17.7862C36.6613 18.0079 35.4722 17.9474 33.7189 17.5846V17.3831C35.6536 17.1614 36.8024 16.5366 37.1652 15.5088C35.8149 16.0328 34.4847 16.053 33.1747 15.5491C32.9329 13.7353 32.0662 12.0625 30.5748 10.5509Z" fill="white"/>
</mask>
<g mask="url(#mask0_214_2097)">
<rect x="0.5" width="39" height="39" fill="#A1AEB7"/>
</g>
</svg>
