<svg width="34" height="23" viewBox="0 0 34 23" fill="none" xmlns="http://www.w3.org/2000/svg">
<path d="M32.8104 3.59872C32.4309 2.18218 31.3127 1.06657 29.8929 0.687964C27.3194 0 17 0 17 0C17 0 6.68066 0 4.10711 0.687964C2.68731 1.06662 1.56909 2.18218 1.18957 3.59872C0.5 6.16628 0.5 11.5232 0.5 11.5232C0.5 11.5232 0.5 16.8802 1.18957 19.4478C1.56909 20.8643 2.68731 21.9334 4.10711 22.312C6.68066 23 17 23 17 23C17 23 27.3193 23 29.8929 22.312C31.3127 21.9334 32.4309 20.8643 32.8104 19.4478C33.5 16.8802 33.5 11.5232 33.5 11.5232C33.5 11.5232 33.5 6.16628 32.8104 3.59872ZM13.625 16.387V6.65952L22.2499 11.5234L13.625 16.387Z" fill="#A1AEB7"/>
</svg>
